<?xml version="1.0" encoding="UTF-8" standalone="no"?>
<!DOCTYPE svg PUBLIC "-//W3C//DTD SVG 1.1//EN" "http://www.w3.org/Graphics/SVG/1.1/DTD/svg11.dtd">
<!-- Created with matplotlib (http://matplotlib.sourceforge.net/) -->
<svg width="283pt" height="282pt" viewBox="0 0 283 282" xmlns="http://www.w3.org/2000/svg" xmlns:xlink="http://www.w3.org/1999/xlink" version="1.1" id="svg1">
<filter id="colorAdd"><feComposite in="SourceGraphic" in2="BackgroundImage" operator="arithmetic" k2="1" k3="1"/></filter>
<g id="figure1">
<g id="patch1">
<path style="fill: #ffffff; stroke: #ffffff; stroke-width: 1.000000; stroke-linejoin: round; stroke-linecap: square;  opacity: 1.000000" d="M0.000000 282.078125L283.260937 282.078125L283.260937 0.000000 L0.000000 0.000000z"/>
</g>
<g id="axes1">
<g id="patch2">
<path style="fill: none; opacity: 0.000000" d="M46.425000 241.200000L269.625000 241.200000L269.625000 10.800000 L46.425000 10.800000z"/>
</g>
<g id="line2d1">
<defs>
  <clipPath id="pc00436fc3cafe1fa0aef664171630eda">
<rect x="46.425000" y="10.800000" width="223.200000" height="230.400000"/>
  </clipPath>
</defs><path style="fill: none; stroke: #00bfbf; stroke-width: 2.000000; stroke-linejoin: round; stroke-linecap: square;  opacity: 1.000000" clip-path="url(#pc00436fc3cafe1fa0aef664171630eda)" d="M46.425000 30.000000L48.679545 30.000000L50.934091 30.000000 L53.188636 30.000000L55.443182 30.000000L57.697727 30.000000 L59.952273 30.000000L62.206818 30.000000L64.461364 30.000000 L66.715909 30.000000L68.970455 30.000000L71.225000 30.000000 L73.479545 30.000000L75.734091 30.000000L77.988636 30.000000 L80.243182 30.000000L82.497727 30.000001L84.752273 30.000139 L87.006818 30.021633L89.261364 33.318968L91.515909 170.743664 L93.770455 221.553109L96.025000 221.997131L98.279545 221.999982 L100.534091 222.000000L102.788636 222.000000L105.043182 222.000000 L107.297727 222.000000L109.552273 222.000000L111.806818 222.000000 L114.061364 222.000000L116.315909 222.000000L118.570455 222.000000 L120.825000 222.000000L123.079545 222.000000L125.334091 222.000000 L127.588636 222.000000L129.843182 222.000000L132.097727 222.000000 L134.352273 222.000000L136.606818 222.000000L138.861364 222.000000 L141.115909 222.000000L143.370455 222.000000L145.625000 222.000000 L147.879545 222.000000L150.134091 222.000000L152.388636 222.000000 L154.643182 222.000000L156.897727 222.000000L159.152273 222.000000 L161.406818 222.000000L163.661364 222.000000L165.915909 222.000000 L168.170455 222.000000L170.425000 222.000000L172.679545 222.000000 L174.934091 222.000000L177.188636 222.000000L179.443182 222.000000 L181.697727 222.000000L183.952273 222.000000L186.206818 222.000000 L188.461364 222.000000L190.715909 222.000000L192.970455 222.000000 L195.225000 222.000000L197.479545 222.000000L199.734091 222.000000 L201.988636 222.000000L204.243182 222.000000L206.497727 222.000000 L208.752273 222.000000L211.006818 222.000000L213.261364 222.000000 L215.515909 222.000000L217.770455 222.000000L220.025000 222.000000 L222.279545 222.000000L224.534091 222.000000L226.788636 222.000000 L229.043182 222.000000L231.297727 222.000000L233.552273 222.000000 L235.806818 222.000000L238.061364 222.000000L240.315909 222.000000 L242.570455 222.000000L244.825000 222.000000L247.079545 222.000000 L249.334091 222.000000L251.588636 222.000000L253.843182 222.000000 L256.097727 222.000000L258.352273 222.000000L260.606818 222.000000 L262.861364 222.000000L265.115909 222.000000L267.370455 222.000000 L269.625000 222.000000"/>
</g>
<g id="line2d2">
<path style="fill: none; stroke: #0000ff; stroke-width: 2.000000; stroke-linejoin: round; stroke-linecap: square;  opacity: 1.000000" clip-path="url(#pc00436fc3cafe1fa0aef664171630eda)" d="M46.425000 30.008716L48.679545 30.014443L50.934091 30.023932 L53.188636 30.039654L55.443182 30.065701L57.697727 30.108846 L59.952273 30.180299L62.206818 30.298583L64.461364 30.494268 L66.715909 30.817653L68.970455 31.351126L71.225000 32.228605 L73.479545 33.665000L75.734091 35.997930L77.988636 39.739077 L80.243182 45.617793L82.497727 54.566727L84.752273 67.551680 L87.006818 85.139693L89.261364 106.865660L91.515909 130.844367 L93.770455 154.231997L96.025000 174.448550L98.279545 190.178897 L100.534091 201.445988L102.788636 209.046296L105.043182 213.967884 L107.297727 217.071055L109.552273 218.994915L111.806818 220.175181 L114.061364 220.894601L116.315909 221.331393L118.570455 221.595954 L120.825000 221.755965L123.079545 221.852657L125.334091 221.911055 L127.588636 221.946314L129.843182 221.967598L132.097727 221.980445 L134.352273 221.988199L136.606818 221.992878L138.861364 221.995702 L141.115909 221.997406L143.370455 221.998435L145.625000 221.999055 L147.879545 221.999430L150.134091 221.999656L152.388636 221.999792 L154.643182 221.999875L156.897727 221.999924L159.152273 221.999954 L161.406818 221.999972L163.661364 221.999983L165.915909 221.999990 L168.170455 221.999994L170.425000 221.999996L172.679545 221.999998 L174.934091 221.999999L177.188636 221.999999L179.443182 222.000000 L181.697727 222.000000L183.952273 222.000000L186.206818 222.000000 L188.461364 222.000000L190.715909 222.000000L192.970455 222.000000 L195.225000 222.000000L197.479545 222.000000L199.734091 222.000000 L201.988636 222.000000L204.243182 222.000000L206.497727 222.000000 L208.752273 222.000000L211.006818 222.000000L213.261364 222.000000 L215.515909 222.000000L217.770455 222.000000L220.025000 222.000000 L222.279545 222.000000L224.534091 222.000000L226.788636 222.000000 L229.043182 222.000000L231.297727 222.000000L233.552273 222.000000 L235.806818 222.000000L238.061364 222.000000L240.315909 222.000000 L242.570455 222.000000L244.825000 222.000000L247.079545 222.000000 L249.334091 222.000000L251.588636 222.000000L253.843182 222.000000 L256.097727 222.000000L258.352273 222.000000L260.606818 222.000000 L262.861364 222.000000L265.115909 222.000000L267.370455 222.000000 L269.625000 222.000000"/>
</g>
<g id="line2d3">
<path style="fill: none; stroke: #ff0000; stroke-width: 2.000000; stroke-linejoin: round; stroke-linecap: square;  opacity: 1.000000" clip-path="url(#pc00436fc3cafe1fa0aef664171630eda)" d="M46.425000 52.886961L48.679545 55.002785L50.934091 57.282655 L53.188636 59.733399L55.443182 62.361038L57.697727 65.170559 L59.952273 68.165683L62.206818 71.348623L64.461364 74.719846 L66.715909 78.277849L68.970455 82.018950L71.225000 85.937122 L73.479545 90.023869L75.734091 94.268162L77.988636 98.656445 L80.243182 103.172713L82.497727 107.798680L84.752273 112.514020 L87.006818 117.296690L89.261364 122.123321L91.515909 126.969664 L93.770455 131.811069L96.025000 136.622987L98.279545 141.381464 L100.534091 146.063612L102.788636 150.648031L105.043182 155.115176 L107.297727 159.447649L109.552273 163.630410L111.806818 167.650908 L114.061364 171.499131L116.315909 175.167581L118.570455 178.651188 L120.825000 181.947163L123.079545 185.054817L125.334091 187.975344 L127.588636 190.711590L129.843182 193.267809L132.097727 195.649431 L134.352273 197.862825L136.606818 199.915085L138.861364 201.813836 L141.115909 203.567051L143.370455 205.182900L145.625000 206.669613 L147.879545 208.035370L150.134091 209.288209L152.388636 210.435950 L154.643182 211.486139L156.897727 212.446006L159.152273 213.322431 L161.406818 214.121929L163.661364 214.850640L165.915909 215.514320 L168.170455 216.118350L170.425000 216.667742L172.679545 217.167150 L174.934091 217.620881L177.188636 218.032917L179.443182 218.406926 L181.697727 218.746284L183.952273 219.054092L186.206818 219.333192 L188.461364 219.586188L190.715909 219.815459L192.970455 220.023180 L195.225000 220.211336L197.479545 220.381735L199.734091 220.536026 L201.988636 220.675709L204.243182 220.802148L206.497727 220.916584 L208.752273 221.020143L211.006818 221.113849L213.261364 221.198632 L215.515909 221.275333L217.770455 221.344719L220.025000 221.407482 L222.279545 221.464250L224.534091 221.515592L226.788636 221.562026 L229.043182 221.604018L231.297727 221.641992L233.552273 221.676330 L235.806818 221.707379L238.061364 221.735454L240.315909 221.760839 L242.570455 221.783791L244.825000 221.804542L247.079545 221.823304 L249.334091 221.840266L251.588636 221.855601L253.843182 221.869465 L256.097727 221.881999L258.352273 221.893329L260.606818 221.903573 L262.861364 221.912833L265.115909 221.921204L267.370455 221.928772 L269.625000 221.935613"/>
</g>
<g id="line2d4">
<path style="fill: none; stroke: #bfbf00; stroke-width: 2.000000; stroke-linejoin: round; stroke-linecap: square;  opacity: 1.000000" clip-path="url(#pc00436fc3cafe1fa0aef664171630eda)" d="M46.425000 81.636753L48.679545 83.565389L50.934091 85.537559 L53.188636 87.552152L55.443182 89.607902L57.697727 91.703384 L59.952273 93.837010L62.206818 96.007039L64.461364 98.211575 L66.715909 100.448569L68.970455 102.715831L71.225000 105.011032 L73.479545 107.331712L75.734091 109.675291L77.988636 112.039081 L80.243182 114.420292L82.497727 116.816051L84.752273 119.223411 L87.006818 121.639366L89.261364 124.060870L91.515909 126.484844 L93.770455 128.908201L96.025000 131.327853L98.279545 133.740734 L100.534091 136.143811L102.788636 138.534101L105.043182 140.908684 L107.297727 143.264719L109.552273 145.599455L111.806818 147.910246 L114.061364 150.194560L116.315909 152.449987L118.570455 154.674253 L120.825000 156.865223L123.079545 159.020910L125.334091 161.139479 L127.588636 163.219249L129.843182 165.258699L132.097727 167.256466 L134.352273 169.211346L136.606818 171.122294L138.861364 172.988421 L141.115909 174.808989L143.370455 176.583410L145.625000 178.311241 L147.879545 179.992177L150.134091 181.626044L152.388636 183.212796 L154.643182 184.752506L156.897727 186.245358L159.152273 187.691643 L161.406818 189.091747L163.661364 190.446146L165.915909 191.755400 L168.170455 193.020142L170.425000 194.241072L172.679545 195.418951 L174.934091 196.554593L177.188636 197.648858L179.443182 198.702648 L181.697727 199.716896L183.952273 200.692567L186.206818 201.630644 L188.461364 202.532132L190.715909 203.398047L192.970455 204.229414 L195.225000 205.027262L197.479545 205.792621L199.734091 206.526519 L201.988636 207.229976L204.243182 207.904007L206.497727 208.549612 L208.752273 209.167782L211.006818 209.759488L213.261364 210.325688 L215.515909 210.867320L217.770455 211.385302L220.025000 211.880531 L222.279545 212.353885L224.534091 212.806215L226.788636 213.238354 L229.043182 213.651109L231.297727 214.045263L233.552273 214.421577 L235.806818 214.780787L238.061364 215.123606L240.315909 215.450722 L242.570455 215.762801L244.825000 216.060486L247.079545 216.344395 L249.334091 216.615127L251.588636 216.873255L253.843182 217.119333 L256.097727 217.353893L258.352273 217.577447L260.606818 217.790486 L262.861364 217.993482L265.115909 218.186888L267.370455 218.371138 L269.625000 218.546648"/>
</g>
<g id="GridlinesCollection1">
<defs>
<path id="coll0_0_3264fef2ae5a08129d412c2f516847ed" d="M46.425000 -40.878125L46.425000 -271.278125"/>
<path id="coll0_1_d2d09df3bc7841ca72bf19026e16179f" d="M91.065000 -40.878125L91.065000 -271.278125"/>
<path id="coll0_2_cabfeef48d57e228686605de5854562f" d="M135.705000 -40.878125L135.705000 -271.278125"/>
<path id="coll0_3_e605d2d9baf326b2ad1ed663210f1270" d="M180.345000 -40.878125L180.345000 -271.278125"/>
<path id="coll0_4_689ee0fc43ee2216c52f0fc173e531ce" d="M224.985000 -40.878125L224.985000 -271.278125"/>
<path id="coll0_5_42a1867eddec2cf9e1855265d55628e4" d="M269.625000 -40.878125L269.625000 -271.278125"/>
<path id="coll0_6_30e27a2f9a8c45fa5489e27261a90dc8" d="M46.425000 -60.078125L269.625000 -60.078125"/>
<path id="coll0_7_d34f5521550e19a38db4ef697b3728c4" d="M46.425000 -98.478125L269.625000 -98.478125"/>
<path id="coll0_8_e4f4ee87c35080e6b0a620438fcf0113" d="M46.425000 -136.878125L269.625000 -136.878125"/>
<path id="coll0_9_214c8a3012d6dccf30de293176349a33" d="M46.425000 -175.278125L269.625000 -175.278125"/>
<path id="coll0_a_e69e03b38cee649a6b65a16298fb08a8" d="M46.425000 -213.678125L269.625000 -213.678125"/>
<path id="coll0_b_21e758eb90076800bbae665182468a9c" d="M46.425000 -252.078125L269.625000 -252.078125"/>
</defs>
<g clip-path="url(#pc00436fc3cafe1fa0aef664171630eda)"><use style="fill: none; stroke: #000000; stroke-width: 0.500000; stroke-linejoin: round; stroke-linecap: butt; stroke-dasharray: 1.000000,3.000000; stroke-dashoffset: 0.000000; opacity: 1.000000" xlink:href="#coll0_0_3264fef2ae5a08129d412c2f516847ed" x="0.000000" y="282.078125"/>
</g><g clip-path="url(#pc00436fc3cafe1fa0aef664171630eda)"><use style="fill: none; stroke: #000000; stroke-width: 0.500000; stroke-linejoin: round; stroke-linecap: butt; stroke-dasharray: 1.000000,3.000000; stroke-dashoffset: 0.000000; opacity: 1.000000" xlink:href="#coll0_1_d2d09df3bc7841ca72bf19026e16179f" x="0.000000" y="282.078125"/>
</g><g clip-path="url(#pc00436fc3cafe1fa0aef664171630eda)"><use style="fill: none; stroke: #000000; stroke-width: 0.500000; stroke-linejoin: round; stroke-linecap: butt; stroke-dasharray: 1.000000,3.000000; stroke-dashoffset: 0.000000; opacity: 1.000000" xlink:href="#coll0_2_cabfeef48d57e228686605de5854562f" x="0.000000" y="282.078125"/>
</g><g clip-path="url(#pc00436fc3cafe1fa0aef664171630eda)"><use style="fill: none; stroke: #000000; stroke-width: 0.500000; stroke-linejoin: round; stroke-linecap: butt; stroke-dasharray: 1.000000,3.000000; stroke-dashoffset: 0.000000; opacity: 1.000000" xlink:href="#coll0_3_e605d2d9baf326b2ad1ed663210f1270" x="0.000000" y="282.078125"/>
</g><g clip-path="url(#pc00436fc3cafe1fa0aef664171630eda)"><use style="fill: none; stroke: #000000; stroke-width: 0.500000; stroke-linejoin: round; stroke-linecap: butt; stroke-dasharray: 1.000000,3.000000; stroke-dashoffset: 0.000000; opacity: 1.000000" xlink:href="#coll0_4_689ee0fc43ee2216c52f0fc173e531ce" x="0.000000" y="282.078125"/>
</g><g clip-path="url(#pc00436fc3cafe1fa0aef664171630eda)"><use style="fill: none; stroke: #000000; stroke-width: 0.500000; stroke-linejoin: round; stroke-linecap: butt; stroke-dasharray: 1.000000,3.000000; stroke-dashoffset: 0.000000; opacity: 1.000000" xlink:href="#coll0_5_42a1867eddec2cf9e1855265d55628e4" x="0.000000" y="282.078125"/>
</g><g clip-path="url(#pc00436fc3cafe1fa0aef664171630eda)"><use style="fill: none; stroke: #000000; stroke-width: 0.500000; stroke-linejoin: round; stroke-linecap: butt; stroke-dasharray: 1.000000,3.000000; stroke-dashoffset: 0.000000; opacity: 1.000000" xlink:href="#coll0_6_30e27a2f9a8c45fa5489e27261a90dc8" x="0.000000" y="282.078125"/>
</g><g clip-path="url(#pc00436fc3cafe1fa0aef664171630eda)"><use style="fill: none; stroke: #000000; stroke-width: 0.500000; stroke-linejoin: round; stroke-linecap: butt; stroke-dasharray: 1.000000,3.000000; stroke-dashoffset: 0.000000; opacity: 1.000000" xlink:href="#coll0_7_d34f5521550e19a38db4ef697b3728c4" x="0.000000" y="282.078125"/>
</g><g clip-path="url(#pc00436fc3cafe1fa0aef664171630eda)"><use style="fill: none; stroke: #000000; stroke-width: 0.500000; stroke-linejoin: round; stroke-linecap: butt; stroke-dasharray: 1.000000,3.000000; stroke-dashoffset: 0.000000; opacity: 1.000000" xlink:href="#coll0_8_e4f4ee87c35080e6b0a620438fcf0113" x="0.000000" y="282.078125"/>
</g><g clip-path="url(#pc00436fc3cafe1fa0aef664171630eda)"><use style="fill: none; stroke: #000000; stroke-width: 0.500000; stroke-linejoin: round; stroke-linecap: butt; stroke-dasharray: 1.000000,3.000000; stroke-dashoffset: 0.000000; opacity: 1.000000" xlink:href="#coll0_9_214c8a3012d6dccf30de293176349a33" x="0.000000" y="282.078125"/>
</g><g clip-path="url(#pc00436fc3cafe1fa0aef664171630eda)"><use style="fill: none; stroke: #000000; stroke-width: 0.500000; stroke-linejoin: round; stroke-linecap: butt; stroke-dasharray: 1.000000,3.000000; stroke-dashoffset: 0.000000; opacity: 1.000000" xlink:href="#coll0_a_e69e03b38cee649a6b65a16298fb08a8" x="0.000000" y="282.078125"/>
</g><g clip-path="url(#pc00436fc3cafe1fa0aef664171630eda)"><use style="fill: none; stroke: #000000; stroke-width: 0.500000; stroke-linejoin: round; stroke-linecap: butt; stroke-dasharray: 1.000000,3.000000; stroke-dashoffset: 0.000000; opacity: 1.000000" xlink:href="#coll0_b_21e758eb90076800bbae665182468a9c" x="0.000000" y="282.078125"/>
</g></g>
<g id="mpl_toolkits.axisartist.axis_artist1">
<g id="line2d5">
<path style="fill: none; stroke: #000000; stroke-width: 1.000000; stroke-linejoin: round; stroke-linecap: square;  opacity: 1.000000" d="M46.425000 241.200000L46.425000 10.800000"/>
</g>
<defs><path id="m3400efa6b1638b3fea9e19e898273957" d="M0.000000 0.000000L4.000000 0.000000"/></defs>
<g><use style="fill: none; stroke: #000000; stroke-width: 0.500000; stroke-linejoin: round; stroke-linecap: butt;  opacity: 1.000000" xlink:href="#m3400efa6b1638b3fea9e19e898273957" x="46.425000" y="222.000000"/>
<use style="fill: none; stroke: #000000; stroke-width: 0.500000; stroke-linejoin: round; stroke-linecap: butt;  opacity: 1.000000" xlink:href="#m3400efa6b1638b3fea9e19e898273957" x="46.425000" y="222.000000"/>
</g><g><use style="fill: none; stroke: #000000; stroke-width: 0.500000; stroke-linejoin: round; stroke-linecap: butt;  opacity: 1.000000" xlink:href="#m3400efa6b1638b3fea9e19e898273957" x="46.425000" y="183.600000"/>
<use style="fill: none; stroke: #000000; stroke-width: 0.500000; stroke-linejoin: round; stroke-linecap: butt;  opacity: 1.000000" xlink:href="#m3400efa6b1638b3fea9e19e898273957" x="46.425000" y="183.600000"/>
</g><g><use style="fill: none; stroke: #000000; stroke-width: 0.500000; stroke-linejoin: round; stroke-linecap: butt;  opacity: 1.000000" xlink:href="#m3400efa6b1638b3fea9e19e898273957" x="46.425000" y="145.200000"/>
<use style="fill: none; stroke: #000000; stroke-width: 0.500000; stroke-linejoin: round; stroke-linecap: butt;  opacity: 1.000000" xlink:href="#m3400efa6b1638b3fea9e19e898273957" x="46.425000" y="145.200000"/>
</g><g><use style="fill: none; stroke: #000000; stroke-width: 0.500000; stroke-linejoin: round; stroke-linecap: butt;  opacity: 1.000000" xlink:href="#m3400efa6b1638b3fea9e19e898273957" x="46.425000" y="106.800000"/>
<use style="fill: none; stroke: #000000; stroke-width: 0.500000; stroke-linejoin: round; stroke-linecap: butt;  opacity: 1.000000" xlink:href="#m3400efa6b1638b3fea9e19e898273957" x="46.425000" y="106.800000"/>
</g><g><use style="fill: none; stroke: #000000; stroke-width: 0.500000; stroke-linejoin: round; stroke-linecap: butt;  opacity: 1.000000" xlink:href="#m3400efa6b1638b3fea9e19e898273957" x="46.425000" y="68.400000"/>
<use style="fill: none; stroke: #000000; stroke-width: 0.500000; stroke-linejoin: round; stroke-linecap: butt;  opacity: 1.000000" xlink:href="#m3400efa6b1638b3fea9e19e898273957" x="46.425000" y="68.400000"/>
</g><g><use style="fill: none; stroke: #000000; stroke-width: 0.500000; stroke-linejoin: round; stroke-linecap: butt;  opacity: 1.000000" xlink:href="#m3400efa6b1638b3fea9e19e898273957" x="46.425000" y="30.000000"/>
<use style="fill: none; stroke: #000000; stroke-width: 0.500000; stroke-linejoin: round; stroke-linecap: butt;  opacity: 1.000000" xlink:href="#m3400efa6b1638b3fea9e19e898273957" x="46.425000" y="30.000000"/>
</g><g id="text1">
<defs>
<path id="c_7a2040fe3b94fcd41d0a72c84e93b115" d="M31.781250 -66.406250q-7.609375 0.000000 -11.453125 7.500000q-3.828125 7.484375 -3.828125 22.531250q0.000000 14.984375 3.828125 22.484375q3.843750 7.500000 11.453125 7.500000q7.671875 0.000000 11.500000 -7.500000q3.843750 -7.500000 3.843750 -22.484375q0.000000 -15.046875 -3.843750 -22.531250q-3.828125 -7.500000 -11.500000 -7.500000M31.781250 -74.218750q12.265625 0.000000 18.734375 9.703125q6.468750 9.687500 6.468750 28.140625q0.000000 18.406250 -6.468750 28.109375q-6.468750 9.687500 -18.734375 9.687500q-12.250000 0.000000 -18.718750 -9.687500q-6.468750 -9.703125 -6.468750 -28.109375q0.000000 -18.453125 6.468750 -28.140625q6.468750 -9.703125 18.718750 -9.703125"/>
<path id="c_ed3e21196fb739f392806f09ca0594ef" d="M10.687500 -12.406250l10.312500 0.000000l0.000000 12.406250l-10.312500 0.000000z"/>
</defs>
<g style="fill: #000000; opacity: 1.000000" transform="translate(24.925000,226.367188)scale(0.120000)">
<use xlink:href="#c_7a2040fe3b94fcd41d0a72c84e93b115"/>
<use xlink:href="#c_ed3e21196fb739f392806f09ca0594ef" x="63.623047"/>
<use xlink:href="#c_7a2040fe3b94fcd41d0a72c84e93b115" x="95.410156"/>
</g>
</g>
<g id="text2">
<defs>
<path id="c_ed3f3ed3ebfbd18bcb9c012009a68ad1" d="M19.187500 -8.296875l34.421875 0.000000l0.000000 8.296875l-46.281250 0.000000l0.000000 -8.296875q5.609375 -5.812500 15.296875 -15.593750q9.703125 -9.796875 12.187500 -12.640625q4.734375 -5.312500 6.609375 -9.000000q1.890625 -3.687500 1.890625 -7.250000q0.000000 -5.812500 -4.078125 -9.468750q-4.078125 -3.671875 -10.625000 -3.671875q-4.640625 0.000000 -9.796875 1.609375q-5.140625 1.609375 -11.000000 4.890625l0.000000 -9.968750q5.953125 -2.390625 11.125000 -3.609375q5.187500 -1.218750 9.484375 -1.218750q11.328125 0.000000 18.062500 5.671875q6.734375 5.656250 6.734375 15.125000q0.000000 4.500000 -1.687500 8.531250q-1.671875 4.015625 -6.125000 9.484375q-1.218750 1.421875 -7.765625 8.187500q-6.531250 6.765625 -18.453125 18.921875"/>
</defs>
<g style="fill: #000000; opacity: 1.000000" transform="translate(25.331250,187.967188)scale(0.120000)">
<use xlink:href="#c_7a2040fe3b94fcd41d0a72c84e93b115"/>
<use xlink:href="#c_ed3e21196fb739f392806f09ca0594ef" x="63.623047"/>
<use xlink:href="#c_ed3f3ed3ebfbd18bcb9c012009a68ad1" x="95.410156"/>
</g>
</g>
<g id="text3">
<defs>
<path id="c_a0416418d96557a09b8c1332d34883ba" d="M37.796875 -64.312500l-24.906250 38.921875l24.906250 0.000000zM35.203125 -72.906250l12.406250 0.000000l0.000000 47.515625l10.406250 0.000000l0.000000 8.203125l-10.406250 0.000000l0.000000 17.187500l-9.812500 0.000000l0.000000 -17.187500l-32.906250 0.000000l0.000000 -9.515625z"/>
</defs>
<g style="fill: #000000; opacity: 1.000000" transform="translate(24.800000,149.567188)scale(0.120000)">
<use xlink:href="#c_7a2040fe3b94fcd41d0a72c84e93b115"/>
<use xlink:href="#c_ed3e21196fb739f392806f09ca0594ef" x="63.623047"/>
<use xlink:href="#c_a0416418d96557a09b8c1332d34883ba" x="95.410156"/>
</g>
</g>
<g id="text4">
<defs>
<path id="c_cc8d6d580d1b10c8632f7a42cd53db8a" d="M33.015625 -40.375000q-6.640625 0.000000 -10.531250 4.546875q-3.875000 4.531250 -3.875000 12.437500q0.000000 7.859375 3.875000 12.437500q3.890625 4.562500 10.531250 4.562500q6.640625 0.000000 10.515625 -4.562500q3.875000 -4.578125 3.875000 -12.437500q0.000000 -7.906250 -3.875000 -12.437500q-3.875000 -4.546875 -10.515625 -4.546875M52.593750 -71.296875l0.000000 8.984375q-3.718750 -1.750000 -7.500000 -2.671875q-3.781250 -0.937500 -7.500000 -0.937500q-9.765625 0.000000 -14.921875 6.593750q-5.140625 6.593750 -5.875000 19.921875q2.875000 -4.250000 7.218750 -6.515625q4.359375 -2.265625 9.578125 -2.265625q10.984375 0.000000 17.359375 6.671875q6.375000 6.656250 6.375000 18.125000q0.000000 11.234375 -6.640625 18.031250q-6.640625 6.781250 -17.671875 6.781250q-12.656250 0.000000 -19.343750 -9.687500q-6.687500 -9.703125 -6.687500 -28.109375q0.000000 -17.281250 8.203125 -27.562500q8.203125 -10.281250 22.015625 -10.281250q3.718750 0.000000 7.500000 0.734375q3.781250 0.734375 7.890625 2.187500"/>
</defs>
<g style="fill: #000000; opacity: 1.000000" transform="translate(24.893750,111.167188)scale(0.120000)">
<use xlink:href="#c_7a2040fe3b94fcd41d0a72c84e93b115"/>
<use xlink:href="#c_ed3e21196fb739f392806f09ca0594ef" x="63.623047"/>
<use xlink:href="#c_cc8d6d580d1b10c8632f7a42cd53db8a" x="95.410156"/>
</g>
</g>
<g id="text5">
<defs>
<path id="c_bef35738d52871942e50b9de9b122bab" d="M31.781250 -34.625000q-7.031250 0.000000 -11.062500 3.765625q-4.015625 3.765625 -4.015625 10.343750q0.000000 6.593750 4.015625 10.359375q4.031250 3.765625 11.062500 3.765625q7.031250 0.000000 11.078125 -3.781250q4.062500 -3.796875 4.062500 -10.343750q0.000000 -6.578125 -4.031250 -10.343750q-4.015625 -3.765625 -11.109375 -3.765625M21.921875 -38.812500q-6.343750 -1.562500 -9.890625 -5.906250q-3.531250 -4.359375 -3.531250 -10.609375q0.000000 -8.734375 6.218750 -13.812500q6.234375 -5.078125 17.062500 -5.078125q10.890625 0.000000 17.093750 5.078125q6.203125 5.078125 6.203125 13.812500q0.000000 6.250000 -3.546875 10.609375q-3.531250 4.343750 -9.828125 5.906250q7.125000 1.656250 11.093750 6.500000q3.984375 4.828125 3.984375 11.796875q0.000000 10.609375 -6.468750 16.281250q-6.468750 5.656250 -18.531250 5.656250q-12.046875 0.000000 -18.531250 -5.656250q-6.468750 -5.671875 -6.468750 -16.281250q0.000000 -6.968750 4.000000 -11.796875q4.015625 -4.843750 11.140625 -6.500000M18.312500 -54.390625q0.000000 5.656250 3.531250 8.828125q3.546875 3.171875 9.937500 3.171875q6.359375 0.000000 9.937500 -3.171875q3.593750 -3.171875 3.593750 -8.828125q0.000000 -5.671875 -3.593750 -8.843750q-3.578125 -3.171875 -9.937500 -3.171875q-6.390625 0.000000 -9.937500 3.171875q-3.531250 3.171875 -3.531250 8.843750"/>
</defs>
<g style="fill: #000000; opacity: 1.000000" transform="translate(24.956250,72.767188)scale(0.120000)">
<use xlink:href="#c_7a2040fe3b94fcd41d0a72c84e93b115"/>
<use xlink:href="#c_ed3e21196fb739f392806f09ca0594ef" x="63.623047"/>
<use xlink:href="#c_bef35738d52871942e50b9de9b122bab" x="95.410156"/>
</g>
</g>
<g id="text6">
<defs>
<path id="c_42baa63129a918535c52adb20d687ea7" d="M12.406250 -8.296875l16.109375 0.000000l0.000000 -55.625000l-17.531250 3.515625l0.000000 -8.984375l17.437500 -3.515625l9.859375 0.000000l0.000000 64.609375l16.109375 0.000000l0.000000 8.296875l-41.984375 0.000000z"/>
</defs>
<g style="fill: #000000; opacity: 1.000000" transform="translate(25.440625,34.367188)scale(0.120000)">
<use xlink:href="#c_42baa63129a918535c52adb20d687ea7"/>
<use xlink:href="#c_ed3e21196fb739f392806f09ca0594ef" x="63.623047"/>
<use xlink:href="#c_7a2040fe3b94fcd41d0a72c84e93b115" x="95.410156"/>
</g>
</g>
<defs><path id="mb39cfcf7402899e54c4d755745537394" d="M0.000000 0.000000L2.000000 0.000000"/></defs>
<g><use style="fill: none; stroke: #000000; stroke-width: 0.500000; stroke-linejoin: round; stroke-linecap: butt;  opacity: 1.000000" xlink:href="#mb39cfcf7402899e54c4d755745537394" x="46.425000" y="231.600000"/>
<use style="fill: none; stroke: #000000; stroke-width: 0.500000; stroke-linejoin: round; stroke-linecap: butt;  opacity: 1.000000" xlink:href="#mb39cfcf7402899e54c4d755745537394" x="46.425000" y="231.600000"/>
</g><g><use style="fill: none; stroke: #000000; stroke-width: 0.500000; stroke-linejoin: round; stroke-linecap: butt;  opacity: 1.000000" xlink:href="#mb39cfcf7402899e54c4d755745537394" x="46.425000" y="212.400000"/>
<use style="fill: none; stroke: #000000; stroke-width: 0.500000; stroke-linejoin: round; stroke-linecap: butt;  opacity: 1.000000" xlink:href="#mb39cfcf7402899e54c4d755745537394" x="46.425000" y="212.400000"/>
</g><g><use style="fill: none; stroke: #000000; stroke-width: 0.500000; stroke-linejoin: round; stroke-linecap: butt;  opacity: 1.000000" xlink:href="#mb39cfcf7402899e54c4d755745537394" x="46.425000" y="202.800000"/>
<use style="fill: none; stroke: #000000; stroke-width: 0.500000; stroke-linejoin: round; stroke-linecap: butt;  opacity: 1.000000" xlink:href="#mb39cfcf7402899e54c4d755745537394" x="46.425000" y="202.800000"/>
</g><g><use style="fill: none; stroke: #000000; stroke-width: 0.500000; stroke-linejoin: round; stroke-linecap: butt;  opacity: 1.000000" xlink:href="#mb39cfcf7402899e54c4d755745537394" x="46.425000" y="193.200000"/>
<use style="fill: none; stroke: #000000; stroke-width: 0.500000; stroke-linejoin: round; stroke-linecap: butt;  opacity: 1.000000" xlink:href="#mb39cfcf7402899e54c4d755745537394" x="46.425000" y="193.200000"/>
</g><g><use style="fill: none; stroke: #000000; stroke-width: 0.500000; stroke-linejoin: round; stroke-linecap: butt;  opacity: 1.000000" xlink:href="#mb39cfcf7402899e54c4d755745537394" x="46.425000" y="174.000000"/>
<use style="fill: none; stroke: #000000; stroke-width: 0.500000; stroke-linejoin: round; stroke-linecap: butt;  opacity: 1.000000" xlink:href="#mb39cfcf7402899e54c4d755745537394" x="46.425000" y="174.000000"/>
</g><g><use style="fill: none; stroke: #000000; stroke-width: 0.500000; stroke-linejoin: round; stroke-linecap: butt;  opacity: 1.000000" xlink:href="#mb39cfcf7402899e54c4d755745537394" x="46.425000" y="164.400000"/>
<use style="fill: none; stroke: #000000; stroke-width: 0.500000; stroke-linejoin: round; stroke-linecap: butt;  opacity: 1.000000" xlink:href="#mb39cfcf7402899e54c4d755745537394" x="46.425000" y="164.400000"/>
</g><g><use style="fill: none; stroke: #000000; stroke-width: 0.500000; stroke-linejoin: round; stroke-linecap: butt;  opacity: 1.000000" xlink:href="#mb39cfcf7402899e54c4d755745537394" x="46.425000" y="154.800000"/>
<use style="fill: none; stroke: #000000; stroke-width: 0.500000; stroke-linejoin: round; stroke-linecap: butt;  opacity: 1.000000" xlink:href="#mb39cfcf7402899e54c4d755745537394" x="46.425000" y="154.800000"/>
</g><g><use style="fill: none; stroke: #000000; stroke-width: 0.500000; stroke-linejoin: round; stroke-linecap: butt;  opacity: 1.000000" xlink:href="#mb39cfcf7402899e54c4d755745537394" x="46.425000" y="135.600000"/>
<use style="fill: none; stroke: #000000; stroke-width: 0.500000; stroke-linejoin: round; stroke-linecap: butt;  opacity: 1.000000" xlink:href="#mb39cfcf7402899e54c4d755745537394" x="46.425000" y="135.600000"/>
</g><g><use style="fill: none; stroke: #000000; stroke-width: 0.500000; stroke-linejoin: round; stroke-linecap: butt;  opacity: 1.000000" xlink:href="#mb39cfcf7402899e54c4d755745537394" x="46.425000" y="126.000000"/>
<use style="fill: none; stroke: #000000; stroke-width: 0.500000; stroke-linejoin: round; stroke-linecap: butt;  opacity: 1.000000" xlink:href="#mb39cfcf7402899e54c4d755745537394" x="46.425000" y="126.000000"/>
</g><g><use style="fill: none; stroke: #000000; stroke-width: 0.500000; stroke-linejoin: round; stroke-linecap: butt;  opacity: 1.000000" xlink:href="#mb39cfcf7402899e54c4d755745537394" x="46.425000" y="116.400000"/>
<use style="fill: none; stroke: #000000; stroke-width: 0.500000; stroke-linejoin: round; stroke-linecap: butt;  opacity: 1.000000" xlink:href="#mb39cfcf7402899e54c4d755745537394" x="46.425000" y="116.400000"/>
</g><g><use style="fill: none; stroke: #000000; stroke-width: 0.500000; stroke-linejoin: round; stroke-linecap: butt;  opacity: 1.000000" xlink:href="#mb39cfcf7402899e54c4d755745537394" x="46.425000" y="97.200000"/>
<use style="fill: none; stroke: #000000; stroke-width: 0.500000; stroke-linejoin: round; stroke-linecap: butt;  opacity: 1.000000" xlink:href="#mb39cfcf7402899e54c4d755745537394" x="46.425000" y="97.200000"/>
</g><g><use style="fill: none; stroke: #000000; stroke-width: 0.500000; stroke-linejoin: round; stroke-linecap: butt;  opacity: 1.000000" xlink:href="#mb39cfcf7402899e54c4d755745537394" x="46.425000" y="87.600000"/>
<use style="fill: none; stroke: #000000; stroke-width: 0.500000; stroke-linejoin: round; stroke-linecap: butt;  opacity: 1.000000" xlink:href="#mb39cfcf7402899e54c4d755745537394" x="46.425000" y="87.600000"/>
</g><g><use style="fill: none; stroke: #000000; stroke-width: 0.500000; stroke-linejoin: round; stroke-linecap: butt;  opacity: 1.000000" xlink:href="#mb39cfcf7402899e54c4d755745537394" x="46.425000" y="78.000000"/>
<use style="fill: none; stroke: #000000; stroke-width: 0.500000; stroke-linejoin: round; stroke-linecap: butt;  opacity: 1.000000" xlink:href="#mb39cfcf7402899e54c4d755745537394" x="46.425000" y="78.000000"/>
</g><g><use style="fill: none; stroke: #000000; stroke-width: 0.500000; stroke-linejoin: round; stroke-linecap: butt;  opacity: 1.000000" xlink:href="#mb39cfcf7402899e54c4d755745537394" x="46.425000" y="58.800000"/>
<use style="fill: none; stroke: #000000; stroke-width: 0.500000; stroke-linejoin: round; stroke-linecap: butt;  opacity: 1.000000" xlink:href="#mb39cfcf7402899e54c4d755745537394" x="46.425000" y="58.800000"/>
</g><g><use style="fill: none; stroke: #000000; stroke-width: 0.500000; stroke-linejoin: round; stroke-linecap: butt;  opacity: 1.000000" xlink:href="#mb39cfcf7402899e54c4d755745537394" x="46.425000" y="49.200000"/>
<use style="fill: none; stroke: #000000; stroke-width: 0.500000; stroke-linejoin: round; stroke-linecap: butt;  opacity: 1.000000" xlink:href="#mb39cfcf7402899e54c4d755745537394" x="46.425000" y="49.200000"/>
</g><g><use style="fill: none; stroke: #000000; stroke-width: 0.500000; stroke-linejoin: round; stroke-linecap: butt;  opacity: 1.000000" xlink:href="#mb39cfcf7402899e54c4d755745537394" x="46.425000" y="39.600000"/>
<use style="fill: none; stroke: #000000; stroke-width: 0.500000; stroke-linejoin: round; stroke-linecap: butt;  opacity: 1.000000" xlink:href="#mb39cfcf7402899e54c4d755745537394" x="46.425000" y="39.600000"/>
</g><g><use style="fill: none; stroke: #000000; stroke-width: 0.500000; stroke-linejoin: round; stroke-linecap: butt;  opacity: 1.000000" xlink:href="#mb39cfcf7402899e54c4d755745537394" x="46.425000" y="20.400000"/>
<use style="fill: none; stroke: #000000; stroke-width: 0.500000; stroke-linejoin: round; stroke-linecap: butt;  opacity: 1.000000" xlink:href="#mb39cfcf7402899e54c4d755745537394" x="46.425000" y="20.400000"/>
</g><g><use style="fill: none; stroke: #000000; stroke-width: 0.500000; stroke-linejoin: round; stroke-linecap: butt;  opacity: 1.000000" xlink:href="#mb39cfcf7402899e54c4d755745537394" x="46.425000" y="10.800000"/>
<use style="fill: none; stroke: #000000; stroke-width: 0.500000; stroke-linejoin: round; stroke-linecap: butt;  opacity: 1.000000" xlink:href="#mb39cfcf7402899e54c4d755745537394" x="46.425000" y="10.800000"/>
</g><g id="text7">
<defs>
<path id="c_3df74f7e6714e1be4a23458a5075a645" d="M6.890625 -55.515625l0.000000 -3.468750l36.125000 0.000000l0.000000 3.468750z"/>
<path id="c_4e79783b4799b416f9678acefc53a48a" d="M7.718750 -1.703125q0.000000 -0.593750 0.093750 -0.890625l7.468750 -29.828125q0.734375 -2.781250 0.734375 -4.890625q0.000000 -4.296875 -2.921875 -4.296875q-3.125000 0.000000 -4.640625 3.750000q-1.515625 3.734375 -2.937500 9.437500q0.000000 0.296875 -0.296875 0.468750q-0.281250 0.171875 -0.531250 0.171875l-1.171875 0.000000q-0.343750 0.000000 -0.593750 -0.359375q-0.234375 -0.375000 -0.234375 -0.671875q1.078125 -4.343750 2.078125 -7.359375q1.000000 -3.031250 3.125000 -5.515625q2.125000 -2.500000 5.296875 -2.500000q3.750000 0.000000 6.625000 2.375000q2.890625 2.359375 2.890625 6.015625q2.984375 -3.906250 6.984375 -6.140625q4.000000 -2.250000 8.500000 -2.250000q3.562500 0.000000 6.140625 1.218750q2.593750 1.218750 4.031250 3.687500q1.453125 2.468750 1.453125 5.875000q0.000000 4.109375 -1.843750 9.921875q-1.828125 5.812500 -4.562500 12.984375q-1.406250 3.265625 -1.406250 6.000000q0.000000 2.984375 2.281250 2.984375q3.906250 0.000000 6.515625 -4.187500q2.625000 -4.203125 3.703125 -9.000000q0.187500 -0.578125 0.828125 -0.578125l1.171875 0.000000q0.390625 0.000000 0.656250 0.250000q0.265625 0.234375 0.265625 0.625000q0.000000 0.093750 -0.093750 0.296875q-1.375000 5.656250 -4.765625 10.453125q-3.390625 4.781250 -8.468750 4.781250q-3.515625 0.000000 -6.015625 -2.421875q-2.484375 -2.421875 -2.484375 -5.875000q0.000000 -1.859375 0.781250 -3.906250q1.265625 -3.281250 2.906250 -7.812500q1.640625 -4.546875 2.687500 -8.687500q1.046875 -4.156250 1.046875 -7.328125q0.000000 -2.796875 -1.156250 -4.750000q-1.140625 -1.953125 -3.875000 -1.953125q-3.656250 0.000000 -6.734375 1.625000q-3.078125 1.609375 -5.375000 4.265625q-2.296875 2.656250 -4.187500 6.328125l-6.796875 27.187500q-0.343750 1.375000 -1.546875 2.343750q-1.187500 0.984375 -2.656250 0.984375q-1.218750 0.000000 -2.093750 -0.781250q-0.875000 -0.781250 -0.875000 -2.046875"/>
</defs>
<g id="mathtext1">
<g style="fill: #000000" transform="translate(19.800000,130.000000)rotate(-90.0)">
<use xlink:href="#c_3df74f7e6714e1be4a23458a5075a645" transform="translate(0.171875,-1.921875)scale(0.120000)"/>
<use xlink:href="#c_4e79783b4799b416f9678acefc53a48a" transform="translate(0.000000,-1.781250)scale(0.120000)"/>
</g>
</g>
</g>
</g>
<g id="mpl_toolkits.axisartist.axis_artist2">
<g id="line2d6">
<path style="fill: none; stroke: #000000; stroke-width: 1.000000; stroke-linejoin: round; stroke-linecap: square;  opacity: 1.000000" d="M46.425000 241.200000L269.625000 241.200000"/>
</g>
<defs><path id="m30e32995789d870ad79a2e54c91cf9c6" d="M0.000000 0.000000L0.000000 -4.000000"/></defs>
<g><use style="fill: none; stroke: #000000; stroke-width: 0.500000; stroke-linejoin: round; stroke-linecap: butt;  opacity: 1.000000" xlink:href="#m30e32995789d870ad79a2e54c91cf9c6" x="46.425000" y="241.200000"/>
<use style="fill: none; stroke: #000000; stroke-width: 0.500000; stroke-linejoin: round; stroke-linecap: butt;  opacity: 1.000000" xlink:href="#m30e32995789d870ad79a2e54c91cf9c6" x="46.425000" y="241.200000"/>
</g><g><use style="fill: none; stroke: #000000; stroke-width: 0.500000; stroke-linejoin: round; stroke-linecap: butt;  opacity: 1.000000" xlink:href="#m30e32995789d870ad79a2e54c91cf9c6" x="91.065000" y="241.200000"/>
<use style="fill: none; stroke: #000000; stroke-width: 0.500000; stroke-linejoin: round; stroke-linecap: butt;  opacity: 1.000000" xlink:href="#m30e32995789d870ad79a2e54c91cf9c6" x="91.065000" y="241.200000"/>
</g><g><use style="fill: none; stroke: #000000; stroke-width: 0.500000; stroke-linejoin: round; stroke-linecap: butt;  opacity: 1.000000" xlink:href="#m30e32995789d870ad79a2e54c91cf9c6" x="135.705000" y="241.200000"/>
<use style="fill: none; stroke: #000000; stroke-width: 0.500000; stroke-linejoin: round; stroke-linecap: butt;  opacity: 1.000000" xlink:href="#m30e32995789d870ad79a2e54c91cf9c6" x="135.705000" y="241.200000"/>
</g><g><use style="fill: none; stroke: #000000; stroke-width: 0.500000; stroke-linejoin: round; stroke-linecap: butt;  opacity: 1.000000" xlink:href="#m30e32995789d870ad79a2e54c91cf9c6" x="180.345000" y="241.200000"/>
<use style="fill: none; stroke: #000000; stroke-width: 0.500000; stroke-linejoin: round; stroke-linecap: butt;  opacity: 1.000000" xlink:href="#m30e32995789d870ad79a2e54c91cf9c6" x="180.345000" y="241.200000"/>
</g><g><use style="fill: none; stroke: #000000; stroke-width: 0.500000; stroke-linejoin: round; stroke-linecap: butt;  opacity: 1.000000" xlink:href="#m30e32995789d870ad79a2e54c91cf9c6" x="224.985000" y="241.200000"/>
<use style="fill: none; stroke: #000000; stroke-width: 0.500000; stroke-linejoin: round; stroke-linecap: butt;  opacity: 1.000000" xlink:href="#m30e32995789d870ad79a2e54c91cf9c6" x="224.985000" y="241.200000"/>
</g><g><use style="fill: none; stroke: #000000; stroke-width: 0.500000; stroke-linejoin: round; stroke-linecap: butt;  opacity: 1.000000" xlink:href="#m30e32995789d870ad79a2e54c91cf9c6" x="269.625000" y="241.200000"/>
<use style="fill: none; stroke: #000000; stroke-width: 0.500000; stroke-linejoin: round; stroke-linecap: butt;  opacity: 1.000000" xlink:href="#m30e32995789d870ad79a2e54c91cf9c6" x="269.625000" y="241.200000"/>
</g><g id="text8">
<g style="fill: #000000; opacity: 1.000000" transform="translate(43.401562,254.106250)scale(0.120000)">
<use xlink:href="#c_7a2040fe3b94fcd41d0a72c84e93b115"/>
</g>
</g>
<g id="text9">
<g style="fill: #000000; opacity: 1.000000" transform="translate(88.455625,254.106250)scale(0.120000)">
<use xlink:href="#c_42baa63129a918535c52adb20d687ea7"/>
</g>
</g>
<g id="text10">
<g style="fill: #000000; opacity: 1.000000" transform="translate(132.923750,254.106250)scale(0.120000)">
<use xlink:href="#c_ed3f3ed3ebfbd18bcb9c012009a68ad1"/>
</g>
</g>
<g id="text11">
<defs>
<path id="c_3dcfa38a02242cb63ec6726c6e70be7a" d="M40.578125 -39.312500q7.078125 1.515625 11.046875 6.312500q3.984375 4.781250 3.984375 11.812500q0.000000 10.781250 -7.421875 16.703125q-7.421875 5.906250 -21.093750 5.906250q-4.578125 0.000000 -9.437500 -0.906250q-4.859375 -0.906250 -10.031250 -2.718750l0.000000 -9.515625q4.093750 2.390625 8.968750 3.609375q4.890625 1.218750 10.218750 1.218750q9.265625 0.000000 14.125000 -3.656250q4.859375 -3.656250 4.859375 -10.640625q0.000000 -6.453125 -4.515625 -10.078125q-4.515625 -3.640625 -12.562500 -3.640625l-8.500000 0.000000l0.000000 -8.109375l8.890625 0.000000q7.265625 0.000000 11.125000 -2.906250q3.859375 -2.906250 3.859375 -8.375000q0.000000 -5.609375 -3.984375 -8.609375q-3.968750 -3.015625 -11.390625 -3.015625q-4.062500 0.000000 -8.703125 0.890625q-4.640625 0.875000 -10.203125 2.718750l0.000000 -8.781250q5.625000 -1.562500 10.531250 -2.343750q4.906250 -0.781250 9.250000 -0.781250q11.234375 0.000000 17.765625 5.109375q6.546875 5.093750 6.546875 13.781250q0.000000 6.062500 -3.468750 10.234375q-3.468750 4.171875 -9.859375 5.781250"/>
</defs>
<g style="fill: #000000; opacity: 1.000000" transform="translate(177.470000,254.106250)scale(0.120000)">
<use xlink:href="#c_3dcfa38a02242cb63ec6726c6e70be7a"/>
</g>
</g>
<g id="text12">
<g style="fill: #000000; opacity: 1.000000" transform="translate(221.797500,254.106250)scale(0.120000)">
<use xlink:href="#c_a0416418d96557a09b8c1332d34883ba"/>
</g>
</g>
<g id="text13">
<defs>
<path id="c_1260a2df50f305f3db244e29828f968e" d="M10.796875 -72.906250l38.718750 0.000000l0.000000 8.312500l-29.687500 0.000000l0.000000 17.859375q2.140625 -0.734375 4.281250 -1.093750q2.156250 -0.359375 4.312500 -0.359375q12.203125 0.000000 19.328125 6.687500q7.140625 6.687500 7.140625 18.109375q0.000000 11.765625 -7.328125 18.296875q-7.328125 6.515625 -20.656250 6.515625q-4.593750 0.000000 -9.359375 -0.781250q-4.750000 -0.781250 -9.828125 -2.343750l0.000000 -9.921875q4.390625 2.390625 9.078125 3.562500q4.687500 1.171875 9.906250 1.171875q8.453125 0.000000 13.375000 -4.437500q4.937500 -4.437500 4.937500 -12.062500q0.000000 -7.609375 -4.937500 -12.046875q-4.921875 -4.453125 -13.375000 -4.453125q-3.953125 0.000000 -7.890625 0.875000q-3.921875 0.875000 -8.015625 2.734375z"/>
</defs>
<g style="fill: #000000; opacity: 1.000000" transform="translate(266.789062,254.106250)scale(0.120000)">
<use xlink:href="#c_1260a2df50f305f3db244e29828f968e"/>
</g>
</g>
<defs><path id="m3b2d125790092c17af877e29e2858cbc" d="M0.000000 0.000000L0.000000 -2.000000"/></defs>
<g><use style="fill: none; stroke: #000000; stroke-width: 0.500000; stroke-linejoin: round; stroke-linecap: butt;  opacity: 1.000000" xlink:href="#m3b2d125790092c17af877e29e2858cbc" x="57.585000" y="241.200000"/>
<use style="fill: none; stroke: #000000; stroke-width: 0.500000; stroke-linejoin: round; stroke-linecap: butt;  opacity: 1.000000" xlink:href="#m3b2d125790092c17af877e29e2858cbc" x="57.585000" y="241.200000"/>
</g><g><use style="fill: none; stroke: #000000; stroke-width: 0.500000; stroke-linejoin: round; stroke-linecap: butt;  opacity: 1.000000" xlink:href="#m3b2d125790092c17af877e29e2858cbc" x="68.745000" y="241.200000"/>
<use style="fill: none; stroke: #000000; stroke-width: 0.500000; stroke-linejoin: round; stroke-linecap: butt;  opacity: 1.000000" xlink:href="#m3b2d125790092c17af877e29e2858cbc" x="68.745000" y="241.200000"/>
</g><g><use style="fill: none; stroke: #000000; stroke-width: 0.500000; stroke-linejoin: round; stroke-linecap: butt;  opacity: 1.000000" xlink:href="#m3b2d125790092c17af877e29e2858cbc" x="79.905000" y="241.200000"/>
<use style="fill: none; stroke: #000000; stroke-width: 0.500000; stroke-linejoin: round; stroke-linecap: butt;  opacity: 1.000000" xlink:href="#m3b2d125790092c17af877e29e2858cbc" x="79.905000" y="241.200000"/>
</g><g><use style="fill: none; stroke: #000000; stroke-width: 0.500000; stroke-linejoin: round; stroke-linecap: butt;  opacity: 1.000000" xlink:href="#m3b2d125790092c17af877e29e2858cbc" x="102.225000" y="241.200000"/>
<use style="fill: none; stroke: #000000; stroke-width: 0.500000; stroke-linejoin: round; stroke-linecap: butt;  opacity: 1.000000" xlink:href="#m3b2d125790092c17af877e29e2858cbc" x="102.225000" y="241.200000"/>
</g><g><use style="fill: none; stroke: #000000; stroke-width: 0.500000; stroke-linejoin: round; stroke-linecap: butt;  opacity: 1.000000" xlink:href="#m3b2d125790092c17af877e29e2858cbc" x="113.385000" y="241.200000"/>
<use style="fill: none; stroke: #000000; stroke-width: 0.500000; stroke-linejoin: round; stroke-linecap: butt;  opacity: 1.000000" xlink:href="#m3b2d125790092c17af877e29e2858cbc" x="113.385000" y="241.200000"/>
</g><g><use style="fill: none; stroke: #000000; stroke-width: 0.500000; stroke-linejoin: round; stroke-linecap: butt;  opacity: 1.000000" xlink:href="#m3b2d125790092c17af877e29e2858cbc" x="124.545000" y="241.200000"/>
<use style="fill: none; stroke: #000000; stroke-width: 0.500000; stroke-linejoin: round; stroke-linecap: butt;  opacity: 1.000000" xlink:href="#m3b2d125790092c17af877e29e2858cbc" x="124.545000" y="241.200000"/>
</g><g><use style="fill: none; stroke: #000000; stroke-width: 0.500000; stroke-linejoin: round; stroke-linecap: butt;  opacity: 1.000000" xlink:href="#m3b2d125790092c17af877e29e2858cbc" x="146.865000" y="241.200000"/>
<use style="fill: none; stroke: #000000; stroke-width: 0.500000; stroke-linejoin: round; stroke-linecap: butt;  opacity: 1.000000" xlink:href="#m3b2d125790092c17af877e29e2858cbc" x="146.865000" y="241.200000"/>
</g><g><use style="fill: none; stroke: #000000; stroke-width: 0.500000; stroke-linejoin: round; stroke-linecap: butt;  opacity: 1.000000" xlink:href="#m3b2d125790092c17af877e29e2858cbc" x="158.025000" y="241.200000"/>
<use style="fill: none; stroke: #000000; stroke-width: 0.500000; stroke-linejoin: round; stroke-linecap: butt;  opacity: 1.000000" xlink:href="#m3b2d125790092c17af877e29e2858cbc" x="158.025000" y="241.200000"/>
</g><g><use style="fill: none; stroke: #000000; stroke-width: 0.500000; stroke-linejoin: round; stroke-linecap: butt;  opacity: 1.000000" xlink:href="#m3b2d125790092c17af877e29e2858cbc" x="169.185000" y="241.200000"/>
<use style="fill: none; stroke: #000000; stroke-width: 0.500000; stroke-linejoin: round; stroke-linecap: butt;  opacity: 1.000000" xlink:href="#m3b2d125790092c17af877e29e2858cbc" x="169.185000" y="241.200000"/>
</g><g><use style="fill: none; stroke: #000000; stroke-width: 0.500000; stroke-linejoin: round; stroke-linecap: butt;  opacity: 1.000000" xlink:href="#m3b2d125790092c17af877e29e2858cbc" x="191.505000" y="241.200000"/>
<use style="fill: none; stroke: #000000; stroke-width: 0.500000; stroke-linejoin: round; stroke-linecap: butt;  opacity: 1.000000" xlink:href="#m3b2d125790092c17af877e29e2858cbc" x="191.505000" y="241.200000"/>
</g><g><use style="fill: none; stroke: #000000; stroke-width: 0.500000; stroke-linejoin: round; stroke-linecap: butt;  opacity: 1.000000" xlink:href="#m3b2d125790092c17af877e29e2858cbc" x="202.665000" y="241.200000"/>
<use style="fill: none; stroke: #000000; stroke-width: 0.500000; stroke-linejoin: round; stroke-linecap: butt;  opacity: 1.000000" xlink:href="#m3b2d125790092c17af877e29e2858cbc" x="202.665000" y="241.200000"/>
</g><g><use style="fill: none; stroke: #000000; stroke-width: 0.500000; stroke-linejoin: round; stroke-linecap: butt;  opacity: 1.000000" xlink:href="#m3b2d125790092c17af877e29e2858cbc" x="213.825000" y="241.200000"/>
<use style="fill: none; stroke: #000000; stroke-width: 0.500000; stroke-linejoin: round; stroke-linecap: butt;  opacity: 1.000000" xlink:href="#m3b2d125790092c17af877e29e2858cbc" x="213.825000" y="241.200000"/>
</g><g><use style="fill: none; stroke: #000000; stroke-width: 0.500000; stroke-linejoin: round; stroke-linecap: butt;  opacity: 1.000000" xlink:href="#m3b2d125790092c17af877e29e2858cbc" x="236.145000" y="241.200000"/>
<use style="fill: none; stroke: #000000; stroke-width: 0.500000; stroke-linejoin: round; stroke-linecap: butt;  opacity: 1.000000" xlink:href="#m3b2d125790092c17af877e29e2858cbc" x="236.145000" y="241.200000"/>
</g><g><use style="fill: none; stroke: #000000; stroke-width: 0.500000; stroke-linejoin: round; stroke-linecap: butt;  opacity: 1.000000" xlink:href="#m3b2d125790092c17af877e29e2858cbc" x="247.305000" y="241.200000"/>
<use style="fill: none; stroke: #000000; stroke-width: 0.500000; stroke-linejoin: round; stroke-linecap: butt;  opacity: 1.000000" xlink:href="#m3b2d125790092c17af877e29e2858cbc" x="247.305000" y="241.200000"/>
</g><g><use style="fill: none; stroke: #000000; stroke-width: 0.500000; stroke-linejoin: round; stroke-linecap: butt;  opacity: 1.000000" xlink:href="#m3b2d125790092c17af877e29e2858cbc" x="258.465000" y="241.200000"/>
<use style="fill: none; stroke: #000000; stroke-width: 0.500000; stroke-linejoin: round; stroke-linecap: butt;  opacity: 1.000000" xlink:href="#m3b2d125790092c17af877e29e2858cbc" x="258.465000" y="241.200000"/>
</g><g id="text14">
<defs>
<path id="c_64ca7deae3ee0f53b2efe8e14c3e90ca" d="M12.312500 -14.109375q0.000000 3.359375 1.218750 6.250000q1.218750 2.875000 3.671875 4.609375q2.468750 1.734375 5.796875 1.734375q2.250000 0.000000 4.781250 -0.968750q2.546875 -0.984375 4.718750 -2.156250q2.171875 -1.171875 2.218750 -1.171875q0.531250 0.000000 0.843750 0.609375q0.328125 0.609375 0.328125 1.203125q0.000000 0.531250 -0.296875 0.671875q-6.250000 4.453125 -12.687500 4.453125q-5.281250 0.000000 -9.531250 -2.468750q-4.250000 -2.468750 -6.562500 -6.859375q-2.312500 -4.390625 -2.312500 -9.625000q0.000000 -5.171875 2.093750 -9.828125q2.093750 -4.671875 5.796875 -8.140625q3.718750 -3.468750 8.406250 -5.390625q4.687500 -1.921875 9.812500 -1.921875l5.671875 0.000000q1.515625 0.000000 1.515625 1.500000q0.000000 0.843750 -0.562500 1.437500q-0.562500 0.578125 -1.343750 0.578125l-5.468750 0.000000q-4.000000 0.000000 -7.250000 1.765625q-3.250000 1.750000 -5.453125 4.875000q-2.187500 3.125000 -3.406250 7.078125l17.671875 0.000000q0.687500 0.000000 1.093750 0.421875q0.421875 0.406250 0.421875 1.031250q0.000000 0.843750 -0.546875 1.437500q-0.531250 0.578125 -1.359375 0.578125l-18.218750 0.000000q-1.062500 5.171875 -1.062500 8.296875"/>
<path id="c_62db141412f5d9d8ddcda81385ac812d" d="M5.609375 23.000000q0.000000 -0.296875 0.109375 -0.390625l34.765625 -96.390625q0.187500 -0.578125 0.671875 -0.890625q0.500000 -0.328125 1.125000 -0.328125q0.890625 0.000000 1.437500 0.546875q0.562500 0.531250 0.562500 1.453125l0.000000 0.390625l-34.765625 96.390625q-0.578125 1.218750 -1.890625 1.218750q-0.843750 0.000000 -1.437500 -0.593750q-0.578125 -0.578125 -0.578125 -1.406250"/>
<path id="c_3260b495c6402fff66ed286585579e9c" d="M2.781250 18.796875q0.000000 -0.578125 0.093750 -0.781250l14.703125 -59.031250q0.437500 -1.421875 1.578125 -2.296875q1.156250 -0.875000 2.625000 -0.875000q1.265625 0.000000 2.140625 0.765625q0.890625 0.750000 0.890625 2.015625q0.000000 0.296875 -0.031250 0.468750q-0.031250 0.171875 -0.078125 0.359375l-5.906250 23.390625q-0.968750 4.156250 -0.968750 7.171875q0.000000 3.718750 1.750000 6.109375q1.765625 2.390625 5.328125 2.390625q7.265625 0.000000 12.796875 -9.078125q0.046875 -0.093750 0.062500 -0.140625q0.031250 -0.062500 0.031250 -0.156250l7.218750 -29.000000q0.343750 -1.328125 1.562500 -2.265625q1.218750 -0.953125 2.640625 -0.953125q1.171875 0.000000 2.078125 0.781250q0.906250 0.781250 0.906250 2.046875q0.000000 0.578125 -0.109375 0.781250l-7.171875 28.812500q-0.734375 2.828125 -0.734375 4.875000q0.000000 4.296875 2.937500 4.296875q3.125000 0.000000 4.703125 -3.859375q1.593750 -3.859375 2.765625 -9.328125q0.187500 -0.578125 0.828125 -0.578125l1.171875 0.000000q0.390625 0.000000 0.656250 0.312500q0.265625 0.312500 0.265625 0.656250q-1.750000 6.984375 -3.828125 11.218750q-2.078125 4.218750 -6.765625 4.218750q-3.312500 0.000000 -5.875000 -1.906250q-2.562500 -1.906250 -3.343750 -5.125000q-2.500000 3.125000 -5.843750 5.078125q-3.343750 1.953125 -7.046875 1.953125q-6.250000 0.000000 -9.828125 -2.937500l-5.078125 20.218750q-0.281250 1.421875 -1.453125 2.296875q-1.171875 0.875000 -2.640625 0.875000q-1.218750 0.000000 -2.125000 -0.765625q-0.906250 -0.750000 -0.906250 -2.015625"/>
</defs>
<g id="mathtext2">
<g style="fill: #000000" transform="translate(148.525000,271.278125)">
<use xlink:href="#c_64ca7deae3ee0f53b2efe8e14c3e90ca" transform="translate(0.000000,-3.000000)scale(0.120000)"/>
<use xlink:href="#c_62db141412f5d9d8ddcda81385ac812d" transform="translate(4.857422,-3.000000)scale(0.120000)"/>
<use xlink:href="#c_3260b495c6402fff66ed286585579e9c" transform="translate(10.857422,-3.000000)scale(0.120000)"/>
</g>
</g>
</g>
</g>
<g id="legend1">
<g id="line2d7">
<path style="fill: none; stroke: #00bfbf; stroke-width: 2.000000; stroke-linejoin: round; stroke-linecap: square;  opacity: 1.000000" d="M175.185000 28.800000L195.345000 28.800000"/>
</g>
<g id="line2d8">
</g>
<g id="text15">
<defs>
<path id="c_7834f07fc511277fc3d27d854f452306" d="M5.328125 -1.812500q0.000000 -0.578125 0.093750 -0.875000l14.500000 -57.812500q0.390625 -1.703125 0.484375 -2.687500q0.000000 -1.609375 -6.484375 -1.609375q-1.031250 0.000000 -1.031250 -1.312500q0.046875 -0.250000 0.218750 -0.875000q0.171875 -0.640625 0.437500 -0.984375q0.265625 -0.343750 0.765625 -0.343750l13.468750 -1.078125l0.296875 0.000000q0.000000 0.109375 0.343750 0.281250q0.343750 0.156250 0.390625 0.218750q0.187500 0.484375 0.187500 0.781250l-10.500000 41.796875q3.625000 -1.515625 9.109375 -7.203125q5.500000 -5.687500 8.593750 -8.171875q3.109375 -2.500000 7.796875 -2.500000q2.781250 0.000000 4.734375 1.906250q1.953125 1.906250 1.953125 4.687500q0.000000 1.750000 -0.734375 3.250000q-0.734375 1.484375 -2.062500 2.421875q-1.312500 0.921875 -3.062500 0.921875q-1.609375 0.000000 -2.718750 -1.000000q-1.093750 -1.015625 -1.093750 -2.625000q0.000000 -2.390625 1.687500 -4.015625q1.687500 -1.640625 4.078125 -1.640625q-0.984375 -1.328125 -2.984375 -1.328125q-2.968750 0.000000 -5.734375 1.718750q-2.765625 1.703125 -5.968750 4.906250q-3.187500 3.203125 -5.828125 5.859375q-2.625000 2.656250 -4.875000 4.031250q5.906250 0.671875 10.250000 3.093750q4.343750 2.421875 4.343750 7.406250q0.000000 1.015625 -0.390625 2.578125q-0.875000 3.765625 -0.875000 6.015625q0.000000 4.484375 3.078125 4.484375q3.609375 0.000000 5.484375 -3.953125q1.890625 -3.953125 3.109375 -9.234375q0.187500 -0.578125 0.828125 -0.578125l1.171875 0.000000q0.390625 0.000000 0.656250 0.250000q0.265625 0.234375 0.265625 0.625000q0.000000 0.093750 -0.093750 0.296875q-3.765625 15.234375 -11.625000 15.234375q-2.828125 0.000000 -5.000000 -1.312500q-2.171875 -1.328125 -3.343750 -3.593750q-1.171875 -2.281250 -1.171875 -5.109375q0.000000 -1.609375 0.437500 -3.312500q0.296875 -1.171875 0.296875 -2.203125q0.000000 -3.859375 -3.421875 -5.859375q-3.421875 -2.000000 -7.812500 -2.437500l-5.078125 20.406250q-0.390625 1.515625 -1.515625 2.468750q-1.125000 0.953125 -2.578125 0.953125q-1.281250 0.000000 -2.187500 -0.859375q-0.890625 -0.859375 -0.890625 -2.078125"/>
<path id="c_4af9599587a0091f79c2f694637ff61b" d="M4.593750 -1.312500q0.046875 -0.250000 0.218750 -0.875000q0.171875 -0.640625 0.437500 -0.984375q0.265625 -0.343750 0.750000 -0.343750q8.593750 0.000000 11.390625 -0.484375q2.671875 -0.687500 3.218750 -2.890625l13.671875 -54.921875q0.437500 -1.218750 0.437500 -2.203125q0.000000 -0.781250 -3.515625 -0.781250l-5.812500 0.000000q-6.687500 0.000000 -10.328125 2.062500q-3.640625 2.046875 -5.343750 5.421875q-1.703125 3.359375 -4.390625 11.015625q-0.343750 0.890625 -1.031250 0.890625l-0.875000 0.000000q-1.031250 0.000000 -1.031250 -1.281250l7.125000 -20.703125q0.203125 -0.921875 0.984375 -0.921875l59.078125 0.000000q1.031250 0.000000 1.031250 1.312500l-3.328125 20.703125q0.000000 0.296875 -0.343750 0.593750q-0.328125 0.296875 -0.625000 0.296875l-0.937500 0.000000q-0.968750 0.000000 -0.968750 -1.281250q1.078125 -7.078125 1.078125 -10.000000q0.000000 -3.515625 -1.468750 -5.312500q-1.468750 -1.812500 -3.812500 -2.296875q-2.343750 -0.500000 -6.093750 -0.500000l-5.921875 0.000000q-2.671875 0.000000 -3.609375 0.500000q-0.921875 0.484375 -1.562500 2.921875l-13.718750 54.875000q-0.046875 0.203125 -0.078125 0.406250q-0.015625 0.187500 -0.109375 0.484375q0.000000 1.265625 1.500000 1.609375q2.593750 0.484375 11.093750 0.484375q0.968750 0.000000 0.968750 1.312500q-0.343750 1.421875 -0.546875 1.812500q-0.187500 0.390625 -1.109375 0.390625l-35.406250 0.000000q-1.015625 0.000000 -1.015625 -1.312500"/>
<path id="c_7bbc93c01755cdeb977d08bdfb9ce616" d="M7.515625 -13.281250q-0.828125 0.000000 -1.375000 -0.625000q-0.531250 -0.640625 -0.531250 -1.375000q0.000000 -0.828125 0.531250 -1.406250q0.546875 -0.593750 1.375000 -0.593750l62.796875 0.000000q0.734375 0.000000 1.265625 0.593750q0.546875 0.578125 0.546875 1.406250q0.000000 0.734375 -0.546875 1.375000q-0.531250 0.625000 -1.265625 0.625000zM7.515625 -32.718750q-0.828125 0.000000 -1.375000 -0.578125q-0.531250 -0.593750 -0.531250 -1.421875q0.000000 -0.734375 0.531250 -1.359375q0.546875 -0.640625 1.375000 -0.640625l62.796875 0.000000q0.734375 0.000000 1.265625 0.640625q0.546875 0.625000 0.546875 1.359375q0.000000 0.828125 -0.546875 1.421875q-0.531250 0.578125 -1.265625 0.578125z"/>
<path id="c_1a459ac34855d27ec37ccb0e66298d36" d="M9.281250 -0.000000l0.000000 -3.515625q12.500000 0.000000 12.500000 -3.171875l0.000000 -52.500000q-5.171875 2.500000 -13.093750 2.500000l0.000000 -3.515625q12.265625 0.000000 18.515625 -6.406250l1.406250 0.000000q0.343750 0.000000 0.656250 0.281250q0.328125 0.265625 0.328125 0.609375l0.000000 59.031250q0.000000 3.171875 12.500000 3.171875l0.000000 3.515625z"/>
<path id="c_f47f2818876b2f1a61c47f270461e46e" d="M25.000000 2.203125q-12.250000 0.000000 -16.671875 -10.078125q-4.421875 -10.093750 -4.421875 -24.015625q0.000000 -8.687500 1.578125 -16.343750q1.593750 -7.671875 6.296875 -13.015625q4.718750 -5.359375 13.218750 -5.359375q6.593750 0.000000 10.781250 3.234375q4.203125 3.218750 6.406250 8.328125q2.203125 5.093750 3.000000 10.937500q0.812500 5.828125 0.812500 12.218750q0.000000 8.593750 -1.593750 16.093750q-1.578125 7.500000 -6.218750 12.750000q-4.640625 5.250000 -13.187500 5.250000M25.000000 -0.390625q5.562500 0.000000 8.296875 -5.703125q2.734375 -5.718750 3.375000 -12.656250q0.640625 -6.937500 0.640625 -14.750000q0.000000 -7.515625 -0.640625 -13.859375q-0.640625 -6.359375 -3.359375 -11.500000q-2.703125 -5.156250 -8.312500 -5.156250q-5.656250 0.000000 -8.390625 5.187500q-2.734375 5.171875 -3.375000 11.500000q-0.640625 6.312500 -0.640625 13.828125q0.000000 5.562500 0.265625 10.500000q0.281250 4.937500 1.453125 10.187500q1.171875 5.250000 3.781250 8.843750q2.609375 3.578125 6.906250 3.578125"/>
</defs>
<g id="mathtext3">
<g style="fill: #000000" transform="translate(199.665000,36.840000)">
<use xlink:href="#c_7834f07fc511277fc3d27d854f452306" transform="translate(0.000000,-3.000000)scale(0.120000)"/>
<use xlink:href="#c_4af9599587a0091f79c2f694637ff61b" transform="translate(6.240234,-3.000000)scale(0.120000)"/>
<use xlink:href="#c_7bbc93c01755cdeb977d08bdfb9ce616" transform="translate(15.355078,-3.000000)scale(0.120000)"/>
<use xlink:href="#c_3260b495c6402fff66ed286585579e9c" transform="translate(25.430859,-3.000000)scale(0.120000)"/>
<use xlink:href="#c_62db141412f5d9d8ddcda81385ac812d" transform="translate(32.655469,-3.000000)scale(0.120000)"/>
<use xlink:href="#c_1a459ac34855d27ec37ccb0e66298d36" transform="translate(38.655469,-3.000000)scale(0.120000)"/>
<use xlink:href="#c_f47f2818876b2f1a61c47f270461e46e" transform="translate(44.655469,-3.000000)scale(0.120000)"/>
<use xlink:href="#c_f47f2818876b2f1a61c47f270461e46e" transform="translate(50.655469,-3.000000)scale(0.120000)"/>
</g>
</g>
</g>
<g id="line2d9">
<path style="fill: none; stroke: #0000ff; stroke-width: 2.000000; stroke-linejoin: round; stroke-linecap: square;  opacity: 1.000000" d="M175.185000 42.600000L195.345000 42.600000"/>
</g>
<g id="line2d10">
</g>
<g id="text16">
<g id="mathtext4">
<g style="fill: #000000" transform="translate(199.665000,50.640000)">
<use xlink:href="#c_7834f07fc511277fc3d27d854f452306" transform="translate(0.000000,-3.000000)scale(0.120000)"/>
<use xlink:href="#c_4af9599587a0091f79c2f694637ff61b" transform="translate(6.240234,-3.000000)scale(0.120000)"/>
<use xlink:href="#c_7bbc93c01755cdeb977d08bdfb9ce616" transform="translate(15.355078,-3.000000)scale(0.120000)"/>
<use xlink:href="#c_3260b495c6402fff66ed286585579e9c" transform="translate(25.430859,-3.000000)scale(0.120000)"/>
<use xlink:href="#c_62db141412f5d9d8ddcda81385ac812d" transform="translate(32.655469,-3.000000)scale(0.120000)"/>
<use xlink:href="#c_1a459ac34855d27ec37ccb0e66298d36" transform="translate(38.655469,-3.000000)scale(0.120000)"/>
<use xlink:href="#c_f47f2818876b2f1a61c47f270461e46e" transform="translate(44.655469,-3.000000)scale(0.120000)"/>
</g>
</g>
</g>
<g id="line2d11">
<path style="fill: none; stroke: #ff0000; stroke-width: 2.000000; stroke-linejoin: round; stroke-linecap: square;  opacity: 1.000000" d="M175.185000 56.400000L195.345000 56.400000"/>
</g>
<g id="line2d12">
</g>
<g id="text17">
<defs>
<path id="c_1210e7f4d85518601ea3049211d562d0" d="M4.984375 -0.000000l0.000000 -2.687500q0.000000 -0.250000 0.187500 -0.531250l15.531250 -17.187500q3.515625 -3.812500 5.703125 -6.390625q2.203125 -2.593750 4.343750 -5.968750q2.156250 -3.375000 3.406250 -6.859375q1.250000 -3.484375 1.250000 -7.390625q0.000000 -4.109375 -1.515625 -7.843750q-1.515625 -3.734375 -4.515625 -5.984375q-3.000000 -2.250000 -7.250000 -2.250000q-4.343750 0.000000 -7.812500 2.625000q-3.468750 2.609375 -4.890625 6.750000q0.390625 -0.093750 1.078125 -0.093750q2.250000 0.000000 3.828125 1.515625q1.593750 1.515625 1.593750 3.906250q0.000000 2.296875 -1.593750 3.890625q-1.578125 1.578125 -3.828125 1.578125q-2.343750 0.000000 -3.937500 -1.625000q-1.578125 -1.640625 -1.578125 -3.843750q0.000000 -3.765625 1.406250 -7.046875q1.421875 -3.296875 4.078125 -5.859375q2.671875 -2.578125 6.015625 -3.937500q3.343750 -1.375000 7.093750 -1.375000q5.718750 0.000000 10.640625 2.421875q4.937500 2.421875 7.812500 6.843750q2.890625 4.406250 2.890625 10.328125q0.000000 4.343750 -1.906250 8.250000q-1.906250 3.906250 -4.890625 7.109375q-2.968750 3.187500 -7.609375 7.250000q-4.640625 4.046875 -6.093750 5.406250l-11.328125 10.890625l9.609375 0.000000q7.078125 0.000000 11.843750 -0.109375q4.765625 -0.125000 5.046875 -0.375000q1.171875 -1.265625 2.406250 -9.234375l2.921875 0.000000l-2.828125 17.828125z"/>
</defs>
<g id="mathtext5">
<g style="fill: #000000" transform="translate(199.665000,64.440000)">
<use xlink:href="#c_7834f07fc511277fc3d27d854f452306" transform="translate(0.000000,-3.000000)scale(0.120000)"/>
<use xlink:href="#c_4af9599587a0091f79c2f694637ff61b" transform="translate(6.240234,-3.000000)scale(0.120000)"/>
<use xlink:href="#c_7bbc93c01755cdeb977d08bdfb9ce616" transform="translate(15.355078,-3.000000)scale(0.120000)"/>
<use xlink:href="#c_3260b495c6402fff66ed286585579e9c" transform="translate(25.430859,-3.000000)scale(0.120000)"/>
<use xlink:href="#c_62db141412f5d9d8ddcda81385ac812d" transform="translate(32.655469,-3.000000)scale(0.120000)"/>
<use xlink:href="#c_1210e7f4d85518601ea3049211d562d0" transform="translate(38.655469,-3.000000)scale(0.120000)"/>
</g>
</g>
</g>
<g id="line2d13">
<path style="fill: none; stroke: #bfbf00; stroke-width: 2.000000; stroke-linejoin: round; stroke-linecap: square;  opacity: 1.000000" d="M175.185000 70.200000L195.345000 70.200000"/>
</g>
<g id="line2d14">
</g>
<g id="text18">
<g id="mathtext6">
<g style="fill: #000000" transform="translate(199.665000,78.240000)">
<use xlink:href="#c_7834f07fc511277fc3d27d854f452306" transform="translate(0.000000,-3.671875)scale(0.120000)"/>
<use xlink:href="#c_4af9599587a0091f79c2f694637ff61b" transform="translate(6.240234,-3.671875)scale(0.120000)"/>
<use xlink:href="#c_7bbc93c01755cdeb977d08bdfb9ce616" transform="translate(15.355078,-3.671875)scale(0.120000)"/>
<use xlink:href="#c_3260b495c6402fff66ed286585579e9c" transform="translate(25.430859,-3.671875)scale(0.120000)"/>
</g>
</g>
</g>
</g>
</g>
</g>
</svg>